<svg xmlns="http://www.w3.org/2000/svg" viewBox="0 0 96 96" role="img" aria-label="Local organization">
  <defs>
    <linearGradient id="org-bg" x1="15" y1="10" x2="82" y2="87" gradientUnits="userSpaceOnUse">
      <stop offset="0" stop-color="#9dd4ff"/>
      <stop offset="1" stop-color="#5bb5ff"/>
    </linearGradient>
  </defs>
  <rect width="96" height="96" rx="24" fill="#07101b"/>
  <rect x="9" y="9" width="78" height="78" rx="20" fill="url(#org-bg)"/>
  <circle cx="48" cy="29" r="11" fill="#061120"/>
  <path fill="#061120" d="M25 70c3-15 13-23 23-23s20 8 23 23H25Z"/>
  <path fill="#dff8ff" fill-opacity=".72" d="M20 21h12v5h-7v7h-5V21Zm44 0h12v12h-5v-7h-7v-5ZM20 63h5v7h7v5H20V63Zm51 0h5v12H64v-5h7v-7Z"/>
</svg>
